PathFileType	4	(X/Y/Z)	Patient4_TMGait_0pt8_01_right_27.trc.trc
DataRate	CameraRate	NumFrames	NumMarkers	Units	OrigDataRate	OrigDataStartFrame	OrigNumFrames
92.715231788079	92.715231788079	6	33	mm	92.715231788079	89	       141
Frame#	Time	Sacral			L.Shoulder			Chest			R.Shoulder			Neck			R.ASIS			L.ASIS			R.Thigh.Superior			R.Thigh.Lateral			R.Thigh.Inferior			R.Patella			L.Thigh.Superior			L.Thigh.Lateral			L.Thigh.Inferior			L.Patella			L.Shank.Superior			L.Shank.Lateral			L.Shank.Inferior			R.Shank.Superior			R.Shank.Lateral			R.Shank.Inferior			R.Heel			R.Midfoot.Superior			R.Midfoot.Lateral			R.Toe			L.Heel			L.Midfoot.Lateral			L.Midfoot.Superior			L.Toe			L.Elbow			L.Wrist			R.Elbow			R.Wrist			
		X1	Y1	Z1	X2	Y2	Z2	X3	Y3	Z3	X4	Y4	Z4	X5	Y5	Z5	X6	Y6	Z6	X7	Y7	Z7	X8	Y8	Z8	X9	Y9	Z9	X10	Y10	Z10	X11	Y11	Z11	X12	Y12	Z12	X13	Y13	Z13	X14	Y14	Z14	X15	Y15	Z15	X16	Y16	Z16	X17	Y17	Z17	X18	Y18	Z18	X19	Y19	Z19	X20	Y20	Z20	X21	Y21	Z21	X22	Y22	Z22	X23	Y23	Z23	X24	Y24	Z24	X25	Y25	Z25	X26	Y26	Z26	X27	Y27	Z27	X28	Y28	Z28	X29	Y29	Z29	X30	Y30	Z30	X31	Y31	Z31	X32	Y32	Z32	X33	Y33	Z33	

89	31.149142857143	880.751740234775	992.365270019456	490.039580325258	1052.811002650965	1415.189190397342	306.759789928318	1160.767755704308	1346.403528542940	464.869214215206	1084.939801457469	1426.187232401046	640.047304364985	1058.704720299875	1479.368207407860	460.286497113334	1103.232312520270	924.257576867578	607.321472733439	1094.604788766043	946.372327033824	333.472387150926	1121.139215432497	711.808628064216	582.426850281436	1026.395048495319	609.722962158516	641.595258410056	1100.795414713872	544.825052223668	568.289118946301	1081.123474896982	438.575432431413	583.578196836994	1173.363191110294	762.299416930997	362.791487690906	1112.526883033346	634.413175329754	292.282474972085	1212.447974306202	571.654744579683	354.685432137075	1227.359559407462	499.636587364769	359.947999751903	1201.461916486428	422.592052332246	349.247947222631	1115.832799771979	308.325279490109	291.348136681744	1169.339047991316	195.817906040273	358.034675096520	1003.404866022789	373.514113177626	587.165777363296	883.439658599171	329.440452309585	645.993994387674	869.268123634744	223.322955767226	591.174136861714	667.418550840105	142.430861175331	559.345016371834	841.082827535946	114.309376743633	605.625254289266	733.655494521134	98.596664291783	636.381097687607	920.621912563666	34.179235453480	638.610124707180	1042.899706854390	38.479087856140	392.061991759530	1116.865892573200	36.415210150065	311.075838250061	1198.594951582791	98.431079926487	339.670514528785	1327.277326456069	50.155843416030	309.953378238001	955.428874769855	1076.017251314744	199.887781707971	935.934866105691	817.954707067612	187.754249130261	1188.930934615422	1105.413681255526	765.091497208504	1363.866900193777	1244.564262736914	659.697037696151	
90	31.159928571429	880.321179324527	993.864628213106	488.403591667621	1052.704727198368	1416.744091117038	305.286051004982	1160.516604316998	1347.974528442860	463.501834001836	1084.448824163393	1427.684133373979	638.654681266805	1058.214534555415	1480.827393376010	458.770721278246	1102.980668674357	925.367209646951	605.308275066705	1094.257422028169	948.365122290328	331.615962333357	1125.955415196662	714.322322395678	580.722086906622	1034.405255078092	610.147692804447	640.389358217439	1111.076755998565	546.641463439005	567.520865187837	1092.888173962963	438.932724400588	583.904548401655	1171.663099431891	761.779655181581	359.619031739040	1107.813364605975	634.294905302532	291.230046935732	1207.341983003699	570.548530674243	353.130464072731	1221.307138915373	498.787316042170	359.094365891084	1194.842906464052	421.982649037131	348.519139666106	1108.416461612243	308.161223505324	291.218546185826	1161.244994845993	195.478572658335	357.935162186468	1013.116820067614	374.737573955286	587.066919081219	890.984246822518	335.290646166315	644.915480590076	873.930415992773	229.159015756078	590.996808359658	670.352322797497	158.869924452346	557.072892465599	840.666645098203	118.352536759129	605.660139090822	732.111119109013	110.373534757544	634.754355329229	912.507925331050	32.951336946594	638.862557614113	1034.171200138386	38.390937510283	392.013202022067	1108.115864674043	36.359992973624	311.023614805266	1189.828370966654	98.359658892864	339.648277202822	1318.507204365712	50.208364121115	309.825110807937	960.847054073949	1075.442304682765	198.540885459529	949.946690850749	816.621332309579	187.617049449604	1178.220707284917	1103.038538062575	764.144452265999	1357.975450697087	1235.104079458291	657.439273827532	
91	31.170714285714	879.678809107674	995.338564805930	486.824543955202	1052.690513895139	1418.279929141832	303.925287253371	1160.249903931629	1349.458206157994	462.302088318736	1083.840048146524	1429.038434786649	637.420180611958	1057.711698701357	1482.236232802089	457.392670685696	1102.581938378126	926.427202834887	603.406413333258	1093.765417899416	950.263505466639	329.853270788278	1130.816430844944	717.132664173783	579.135903254357	1042.607647383350	610.909252933774	639.443514926872	1121.476598044129	548.917762111033	566.928780383152	1104.901785078423	439.901838043694	584.181522930195	1169.638409660632	761.150724779723	356.787854856418	1103.111216016792	634.306133669714	290.177512642469	1201.952165680012	569.473090281388	351.890098490667	1214.906463978172	497.926502195287	358.388252358317	1187.940772405474	421.399651021511	347.876546054679	1100.868179717103	307.969104622479	291.028247609588	1153.015541891389	195.145136550324	357.885859382783	1023.348343274879	376.381842365933	586.932911088493	899.273931881038	341.382801693437	643.807208158867	879.541016441706	235.322294675826	590.774501786726	675.061289000129	175.729474396985	554.513034863209	841.099403668719	122.836989291240	605.601241493814	731.824502205590	122.768682502017	632.888878750536	904.764246477246	31.608808561305	639.162686382003	1025.393820832323	38.297591927759	391.970760140984	1099.316087171909	36.277191921706	310.983126192487	1181.041019783302	98.233321700631	339.638382102055	1309.706221051198	50.140312643602	309.713097067365	966.314591140609	1074.983884134613	197.251407084391	964.805307747444	815.650262299556	187.677383368832	1166.809754082676	1100.732332295803	763.171552799906	1352.097910570598	1224.450629738195	655.589473577960	
92	31.181500000000	878.853048807713	996.738146634504	485.300112939014	1052.753988692746	1419.754505403200	302.683261079486	1159.960915133743	1350.818716624325	461.273734376209	1083.113946903980	1430.223963272604	636.350296495473	1057.203334889556	1483.570517355347	456.159170961800	1102.055175031219	927.428108403579	601.618713103571	1093.144234225456	952.031059863601	328.173398495926	1135.633355502481	720.227265258468	577.670286357793	1050.879917016199	612.035893100542	638.749211893486	1131.840049624354	551.669263888476	566.497306034106	1117.030003259168	441.483704068878	584.404745875544	1167.343521415047	760.468469852824	354.375886254340	1098.542439945679	634.460622888965	289.107140962063	1196.393086744120	568.455370606954	350.950628672739	1208.288443776716	497.070253170080	357.815561426350	1180.883967241822	420.844074487710	347.313537253245	1093.295792445436	307.766818420731	290.756175279284	1144.721070887078	194.825321029307	357.874777629266	1033.953944717619	378.452784546238	586.756009850337	908.184046678452	347.617420293963	642.688101728231	886.029718693046	241.691939621598	590.511025068021	681.438662838006	192.550463994693	551.785270702837	842.456604721735	127.662995636674	605.427413757358	732.876135716060	135.417302771793	630.849067134198	897.708347425646	30.260117441025	639.443500594938	1016.598709072645	38.209446840325	391.923977230723	1090.499222645230	36.182939285782	310.946603916949	1172.258966817730	98.076144688423	339.636157889245	1300.901607571449	49.991025250732	309.616014174857	971.838015606246	1074.600423481063	196.003741473552	980.448315179904	815.080929682472	187.937234725636	1154.799020185416	1098.517419532586	762.121092664252	1346.210841232235	1212.551794130760	654.218048270365	
93	31.192285714286	877.886570438845	998.032435117043	483.820009535224	1052.878264768114	1421.144322852891	301.566321823176	1159.643586282182	1352.040333969047	460.417659022777	1082.271917837642	1431.232792342895	635.445919872503	1056.696990923670	1484.818769126135	455.077579414519	1101.417291401537	928.376436391631	599.944128562010	1092.420552143319	953.648601966779	326.568748915127	1140.324626784694	723.589711223168	576.319754451055	1059.107060344099	613.545070255403	638.278851208975	1142.032981683090	554.901978386658	566.201430122804	1129.155893047794	443.667759925267	584.576727896346	1164.842472194561	759.776468739608	352.410528919206	1094.157959428135	634.743391380241	288.021481221104	1190.753534064740	567.502566262454	350.266044700192	1201.559245697324	496.229088566518	357.356891929063	1173.771734208523	420.314132800708	346.819216555175	1085.764394571316	307.568854215918	290.406780764222	1136.414380691031	194.523999541199	357.889881749996	1044.803804504637	380.946302847822	586.542347089609	917.593296254450	353.887786243702	641.585479949705	893.326999277991	248.131939423793	590.218103963908	689.295972618858	208.822350959442	549.045879541530	844.847651667907	132.695207290597	605.115988139129	735.334055232037	147.886069243583	628.726475410915	891.770547520636	29.049230010712	639.610312740267	1007.809635449078	38.133751255881	391.866420224902	1081.690237832979	36.090712861331	310.908963958385	1163.499621632236	97.909383252782	339.638354168492	1292.113051511097	49.797556557844	309.531742204257	977.440163329504	1074.268264860117	194.783379044982	996.810403295126	814.968912762793	188.402745063790	1142.305907411028	1096.426257337398	760.940540989664	1340.278149462069	1199.347520320989	653.393421750302	
94	31.203071428571	876.830872799137	999.207821214415	482.370448891879	1053.047816312946	1422.442661874777	300.579713705908	1159.293478010934	1353.125724990537	459.732604134767	1081.314496416552	1432.073479353326	634.701285438942	1056.198845924626	1485.979861940310	454.153197206416	1100.681616815265	929.289732671915	598.381760682806	1091.631483769177	955.112735058596	325.040165172245	1144.822203412736	727.199089377860	575.071519320855	1067.190419706936	615.441056475514	637.989539139603	1151.948146363112	558.609989849926	566.007980558090	1141.181422995145	446.434025086412	584.701777985922	1162.206320416771	759.102489168546	350.873067371745	1089.950266564019	635.120853434112	286.939755671243	1185.093402808968	566.606408338811	349.773537862757	1194.795113851973	495.408196199867	356.993103846529	1166.670844698986	419.806458304570	346.382851322550	1078.301738969566	307.385888619278	290.002896401919	1128.130230807996	194.242949221986	357.920966925807	1055.789994644761	383.846840410874	586.307774006238	927.392021236235	360.081254890822	640.531559022387	901.370021352736	254.495056282391	589.912218099792	698.379909622012	224.012504727680	546.475191588744	848.412371638886	137.773773239447	604.644703871864	739.256030198084	159.703306053390	626.634102365968	887.480993931045	28.134424804683	639.551459548473	999.041428646272	38.074866535555	391.795718015847	1072.905072765228	36.010193974668	310.867865268926	1154.771805929406	97.749136273209	339.643373535373	1283.352063913679	49.589987016792	309.457916604136	983.153168688652	1073.982920222050	193.577715621455	1013.820434479235	815.384649145671	189.083555080642	1129.465966796853	1094.502532348283	759.582765512221	1334.245114937489	1184.781261434585	653.177710312779	
